<svg width="26" height="26" viewBox="0 0 26 26" fill="none" xmlns="http://www.w3.org/2000/svg">
<path d="M5 17C7.20914 17 9 15.2091 9 13C9 10.7909 7.20914 9 5 9C2.79086 9 1 10.7909 1 13C1 15.2091 2.79086 17 5 17Z" stroke="#DB3F3A" stroke-width="2" stroke-miterlimit="10"/>
<path d="M21 9C23.2091 9 25 7.20914 25 5C25 2.79086 23.2091 1 21 1C18.7909 1 17 2.79086 17 5C17 7.20914 18.7909 9 21 9Z" stroke="#DB3F3A" stroke-width="2" stroke-miterlimit="10"/>
<path d="M21 25C23.2091 25 25 23.2091 25 21C25 18.7909 23.2091 17 21 17C18.7909 17 17 18.7909 17 21C17 23.2091 18.7909 25 21 25Z" stroke="#DB3F3A" stroke-width="2" stroke-miterlimit="10"/>
<path d="M17.0002 5L8.24023 10.66" stroke="#DB3F3A" stroke-width="2" stroke-miterlimit="10"/>
<path d="M7.70996 15.93L17 21" stroke="#DB3F3A" stroke-width="2" stroke-miterlimit="10"/>
</svg>
