<svg width="27" height="27" viewBox="0 0 27 27" fill="none" xmlns="http://www.w3.org/2000/svg">
<path d="M5.05957 17.95C7.26871 17.95 9.05957 16.1592 9.05957 13.95C9.05957 11.7409 7.26871 9.95001 5.05957 9.95001C2.85043 9.95001 1.05957 11.7409 1.05957 13.95C1.05957 16.1592 2.85043 17.95 5.05957 17.95Z" stroke="#E6D3AB" stroke-width="2" stroke-miterlimit="10"/>
<path d="M21.0596 9.95001C23.2687 9.95001 25.0596 8.15915 25.0596 5.95001C25.0596 3.74087 23.2687 1.95001 21.0596 1.95001C18.8504 1.95001 17.0596 3.74087 17.0596 5.95001C17.0596 8.15915 18.8504 9.95001 21.0596 9.95001Z" stroke="#E6D3AB" stroke-width="2" stroke-miterlimit="10"/>
<path d="M21.0596 25.95C23.2687 25.95 25.0596 24.1592 25.0596 21.95C25.0596 19.7409 23.2687 17.95 21.0596 17.95C18.8504 17.95 17.0596 19.7409 17.0596 21.95C17.0596 24.1592 18.8504 25.95 21.0596 25.95Z" stroke="#E6D3AB" stroke-width="2" stroke-miterlimit="10"/>
<path d="M17.0598 5.95001L8.2998 11.61" stroke="#E6D3AB" stroke-width="2" stroke-miterlimit="10"/>
<path d="M7.76953 16.88L17.0595 21.95" stroke="#E6D3AB" stroke-width="2" stroke-miterlimit="10"/>
</svg>
