<svg width="15" height="16" viewBox="0 0 15 16" fill="none" xmlns="http://www.w3.org/2000/svg">
<path d="M9.19748 3.09125L9.58748 3.90625C9.86248 4.48125 10.3975 4.88625 11.0125 4.97625L11.8825 5.10625C13.4325 5.34125 14.0525 7.31125 12.9325 8.44125L12.3025 9.07625C11.8575 9.52625 11.6525 10.1713 11.7575 10.8063L11.9075 11.7013C12.1725 13.3013 10.5525 14.5162 9.16248 13.7612L8.38248 13.3362C7.83248 13.0362 7.17248 13.0362 6.62248 13.3362L5.84247 13.7612C4.45747 14.5162 2.83248 13.2963 3.09748 11.7013L3.24748 10.8063C3.35248 10.1713 3.14747 9.52625 2.70247 9.07625L2.07248 8.44125C0.952478 7.31125 1.56748 5.33625 3.12248 5.10625L3.99248 4.97625C4.60748 4.88125 5.14247 4.48125 5.41747 3.90625L5.80747 3.09125C6.49747 1.63625 8.50248 1.63625 9.19748 3.09125Z" fill="#E8B355" stroke="#E8B355" stroke-miterlimit="10"/>
<path d="M7.50246 9.2561C7.90563 9.2561 8.23246 8.91807 8.23246 8.50109C8.23246 8.08412 7.90563 7.74609 7.50246 7.74609C7.0993 7.74609 6.77246 8.08412 6.77246 8.50109C6.77246 8.91807 7.0993 9.2561 7.50246 9.2561Z" fill="#151F25" stroke="#151F25" stroke-miterlimit="10" stroke-linecap="round"/>
</svg>
