<svg id="Capa_1" data-name="Capa 1" xmlns="http://www.w3.org/2000/svg" viewBox="0 0 250 200"><defs><style>.cls-1,.cls-18{fill:#dd3d34;}.cls-1,.cls-10,.cls-13,.cls-8{stroke:#1d1d1b;}.cls-1,.cls-10,.cls-11,.cls-12,.cls-13,.cls-14,.cls-2,.cls-3,.cls-5,.cls-6,.cls-7,.cls-8,.cls-9{stroke-miterlimit:10;}.cls-1,.cls-10,.cls-11,.cls-12,.cls-2,.cls-9{stroke-width:3px;}.cls-14,.cls-16,.cls-2,.cls-4{fill:#dce0e3;}.cls-11,.cls-12,.cls-14,.cls-2,.cls-3,.cls-5,.cls-9{stroke:#161f26;}.cls-11,.cls-13,.cls-3,.cls-6,.cls-7,.cls-8,.cls-9{fill:none;}.cls-13,.cls-3,.cls-6,.cls-8,.cls-9{stroke-linecap:round;}.cls-13,.cls-3,.cls-6,.cls-7{stroke-width:4px;}.cls-15,.cls-5{fill:#161f26;}.cls-6,.cls-7{stroke:#dce0e3;}.cls-10,.cls-12{fill:#e6d3a8;}.cls-14{stroke-width:2px;}.cls-16,.cls-18{font-size:40.94px;font-family:Cubano-Regular, Cubano;}.cls-17{letter-spacing:-0.05em;}</style></defs><path class="cls-1" d="M93.06,38.46s-27.23.73-61,42.4c0,0,23.11,17.77,22.31,32.56,0,0,38.21,4,45.66,1.61,0,0,54.33-2.19,66.9,6.06.62.41,6.59-4.93,7.15-4.3,13.17,3.2,23,4.11,36.47,4.3a89.59,89.59,0,0,0-9.93-37.77C186.7,56.69,156.82,27.61,93.06,38.46Z"/><ellipse class="cls-2" cx="37.51" cy="100.57" rx="5.5" ry="17.73" transform="translate(-53.02 42.91) rotate(-37.05)"/><path class="cls-3" d="M32.66,81.37s-8.74-.05-6.75-3.84.19-8.44-.95-8.06"/><ellipse class="cls-4" cx="78.26" cy="95.08" rx="15.56" ry="14.23"/><ellipse class="cls-5" cx="78.26" cy="95.08" rx="9.44" ry="7.45"/><circle class="cls-4" cx="74.85" cy="93.61" r="4.08"/><path class="cls-6" d="M68.82,49.34s27.54-8,27.57,18.81c0,0,35.61,12.7,13.62,45.64"/><path class="cls-7" d="M116,36.28s16.42,9.38,11.49,26.07c0,0,7,3.87,7.21,18.5,0,0,15.93,14.46,1.26,31.23"/><path class="cls-7" d="M148.61,39.71s14.54,8.08,6.95,22.34c0,0,8.46,9.8,3.29,16.23,0,0,9.82,22.72,2.38,33.87"/><path class="cls-7" d="M175.93,51.81s13.8,8.73,7.38,21.3c0,0,8.44,7.77-1.17,16,0,0,9.53,24.83-9.9,27.27"/><path class="cls-8" d="M93.06,38.47s-27.23.73-61,42.4c0,0,23.11,17.77,22.31,32.56,0,0,38.21,4,45.66,1.62,0,0,56.13-8.09,68.69.15a9.16,9.16,0,0,1,1.77,1.57c13.17,3.2,26.56,4.14,40.06,4.33a89.59,89.59,0,0,0-9.93-37.77C186.7,56.7,156.82,27.63,93.06,38.47Z"/><path class="cls-9" d="M93.06,38.47s-27.23.73-61,42.4c0,0,23.11,17.77,22.31,32.56,0,0,38.21,4,45.66,1.62,0,0,52.71-4.41,65.27,3.83.63.41,4.63-2.74,5.19-2.11,13.17,3.2,26.56,4.14,40.06,4.33a89.59,89.59,0,0,0-9.93-37.77C186.7,56.7,156.82,27.63,93.06,38.47Z"/><path class="cls-10" d="M207.82,122.66c.06-.54.09-1.07.13-1.61h-.13Z"/><path class="cls-2" d="M126,20.69c-10.62-3-32.39,36.08-32.39,36.08s109-7.82,114.22,64v.27H208C213.07,53.74,136.53,23.7,126,20.69Z"/><path class="cls-11" d="M120.86,57.3s10.86-24,24.59-28.37"/><path class="cls-12" d="M142,60.31s9.38-18.45,17.91-23"/><path class="cls-12" d="M160.73,65.46s6.87-12.89,12.33-18.53"/><path class="cls-12" d="M175.76,72.2s3.6-9.33,8.4-14.9"/><path class="cls-12" d="M187.22,80.43s3.52-8.1,7.17-10.34"/><line class="cls-12" x1="194.82" y1="87.58" x2="200.9" y2="84.1"/><path class="cls-13" d="M54.19,113.15s.35,3.27-3.43,8.93,1.72,8.23,1.72,8.23"/><rect class="cls-14" x="21.65" y="112.08" width="206.7" height="67.4" rx="23.69"/><rect class="cls-15" x="27.18" y="118.88" width="195.46" height="53.11" rx="14.13"/><text class="cls-16" transform="translate(41.15 161.02)"><tspan class="cls-17">K</tspan><tspan x="23.46" y="0">OISHELF</tspan></text><text class="cls-18" transform="translate(39.5 159.26)"><tspan class="cls-17">K</tspan><tspan x="23.46" y="0">OISHELF</tspan></text></svg>